<svg data-v-fde0c5aa="" xmlns="http://www.w3.org/2000/svg" viewBox="0 0 300 300" class="iconLeftSlogan"><!----><defs data-v-fde0c5aa=""><linearGradient data-v-fde0c5aa="" gradientTransform="rotate(25)" id="8aed293f-a793-47d9-8df3-677a892c6b2f" x1="0%" y1="0%" x2="100%" y2="0%"><stop data-v-fde0c5aa="" offset="0%" stop-color="#E63500" stop-opacity="1"></stop><stop data-v-fde0c5aa="" offset="100%" stop-color="#FFC316" stop-opacity="1"></stop></linearGradient></defs><rect data-v-fde0c5aa="" fill="url(#8aed293f-a793-47d9-8df3-677a892c6b2f)" x="0" y="0" width="300px" height="300px" class="logo-background-square"></rect><defs data-v-fde0c5aa=""><!----></defs><g data-v-fde0c5aa="" id="33ddab81-1513-4242-8ffe-844065a6cbe9" fill="#ffffff" transform="matrix(1.7786429851035432,0,0,1.7786429851035432,121.24806233926583,127.30048942985056)"><path d="M5.03 6.51L6.64 6.51L6.64 9.49C6.27 9.56 5.33 9.69 4.63 9.69C2.39 9.69 1.92 8.37 1.92 5.68C1.92 2.94 2.41 1.64 4.65 1.64C5.92 1.64 7.66 1.93 7.66 1.93L7.70 1.04C7.70 1.04 5.99 0.67 4.52 0.67C1.61 0.67 0.80 2.46 0.80 5.68C0.80 8.82 1.58 10.64 4.55 10.64C5.61 10.64 7.41 10.36 7.70 10.30L7.70 5.54L5.03 5.54ZM14.57 5.61C14.57 4.09 13.90 3.36 12.32 3.36C11.12 3.36 9.58 3.67 9.58 3.67L9.62 4.47C9.62 4.47 11.28 4.28 12.26 4.28C13.10 4.28 13.52 4.63 13.52 5.61L13.52 6.22L11.33 6.43C9.88 6.57 9.18 7.15 9.18 8.50C9.18 9.91 9.88 10.64 11.16 10.64C12.42 10.64 13.68 10.08 13.68 10.08C14.10 10.50 14.60 10.64 15.34 10.64L15.39 9.81C14.94 9.76 14.60 9.60 14.57 9.20ZM13.52 7.01L13.52 9.32C13.52 9.32 12.36 9.76 11.33 9.76C10.61 9.76 10.26 9.28 10.26 8.47C10.26 7.70 10.60 7.29 11.45 7.21ZM17.70 10.50L17.70 4.82C17.70 4.82 18.58 4.30 19.57 4.30C20.85 4.30 21.04 4.96 21.04 6.89L21.04 10.50L22.09 10.50L22.09 6.86C22.09 6.02 22.04 5.14 21.91 4.82C21.91 4.82 22.85 4.30 23.88 4.30C25.14 4.30 25.35 4.98 25.35 6.83L25.35 10.50L26.40 10.50L26.40 6.80C26.40 4.27 25.94 3.36 24.04 3.36C22.79 3.36 21.55 4.07 21.55 4.07C21.18 3.57 20.66 3.36 19.73 3.36C18.73 3.36 17.68 3.99 17.68 3.99L17.68 3.50L16.65 3.50L16.65 10.50ZM30.94 9.72C29.57 9.72 29.11 8.93 29.11 7.43L33.73 7.43L33.78 6.64C33.78 4.34 32.83 3.36 30.97 3.36C29.19 3.36 28.04 4.38 28.04 7.04C28.04 9.42 28.73 10.64 30.81 10.64C31.95 10.64 33.54 10.42 33.54 10.42L33.52 9.59C33.52 9.59 31.99 9.72 30.94 9.72ZM29.09 6.59C29.11 4.90 29.78 4.24 30.97 4.24C32.20 4.24 32.73 4.86 32.73 6.59ZM35.42 10.50L36.47 10.50L36.47 5.36C36.47 5.36 37.70 4.68 39.02 4.41L39.02 3.35C37.67 3.61 36.46 4.45 36.46 4.45L36.46 3.50L35.42 3.50ZM47.07 7.24C49.18 7.24 50.16 6.05 50.16 3.93C50.16 1.83 49.18 0.81 47.07 0.81L43.53 0.81L43.53 10.50L44.60 10.50L44.60 7.24ZM44.60 6.29L44.60 1.76L47.05 1.76C48.47 1.76 49.06 2.45 49.06 3.93C49.06 5.43 48.47 6.29 47.05 6.29ZM54.18 9.72C52.81 9.72 52.35 8.93 52.35 7.43L56.97 7.43L57.02 6.64C57.02 4.34 56.07 3.36 54.21 3.36C52.43 3.36 51.28 4.38 51.28 7.04C51.28 9.42 51.97 10.64 54.05 10.64C55.19 10.64 56.78 10.42 56.78 10.42L56.76 9.59C56.76 9.59 55.23 9.72 54.18 9.72ZM52.33 6.59C52.35 4.90 53.02 4.24 54.21 4.24C55.44 4.24 55.97 4.86 55.97 6.59ZM61.25 9.72C59.88 9.72 59.42 8.93 59.42 7.43L64.04 7.43L64.09 6.64C64.09 4.34 63.14 3.36 61.28 3.36C59.50 3.36 58.35 4.38 58.35 7.04C58.35 9.42 59.04 10.64 61.12 10.64C62.26 10.64 63.85 10.42 63.85 10.42L63.83 9.59C63.83 9.59 62.30 9.72 61.25 9.72ZM59.40 6.59C59.42 4.90 60.09 4.24 61.28 4.24C62.51 4.24 63.04 4.86 63.04 6.59ZM65.73 13.61L66.78 13.61L66.78 10.49C66.98 10.53 67.69 10.64 68.35 10.64C70.50 10.64 71.40 9.66 71.40 6.92C71.40 4.44 70.63 3.36 68.87 3.36C67.83 3.36 66.77 4.00 66.77 4.00L66.77 3.50L65.73 3.50ZM68.71 4.30C69.73 4.30 70.34 5.00 70.34 6.92C70.34 8.93 69.83 9.73 68.29 9.73C67.69 9.73 66.96 9.60 66.78 9.58L66.78 4.86C66.78 4.86 67.76 4.30 68.71 4.30ZM77.78 3.63C77.78 3.63 76.30 3.36 75.25 3.36C73.98 3.36 72.73 3.86 72.73 5.40C72.73 6.80 73.49 7.10 75.07 7.35C76.59 7.59 76.96 7.77 76.96 8.50C76.96 9.45 76.34 9.70 75.19 9.70C74.48 9.70 72.88 9.46 72.88 9.46L72.83 10.37C72.83 10.37 74.40 10.64 75.29 10.64C76.97 10.64 78.01 10.09 78.01 8.46C78.01 7.10 77.35 6.75 75.60 6.45C74.12 6.20 73.78 6.02 73.78 5.36C73.78 4.54 74.44 4.30 75.31 4.30C76.20 4.30 77.76 4.52 77.76 4.52Z"></path></g><defs data-v-fde0c5aa=""><!----></defs><g data-v-fde0c5aa="" id="fbd97ea6-46b0-4426-ab54-56c864ca1853" stroke="none" fill="#ffffff" transform="matrix(1.4511140271996135,0,0,1.4511140271996135,40.11353642603159,115.24582070923746)"><path d="M39.5 39.8c-3.9 0-7.7-3.2-10.1-8.4H18.5c-2.4 5.1-6.3 8.4-10.1 8.4-.4 0-.9 0-1.3-.1-1.9-.4-3.5-1.6-4.8-3.5C0 32.7-.7 27.4.5 21.9c1.7-8 6.6-13.8 11.8-13.8.4 0 .9 0 1.3.1 1.5.3 2.9 1.2 4.1 2.6h12.4c1.1-1.4 2.5-2.3 4.1-2.6.4-.1.9-.1 1.3-.1 5.1 0 10.2 5.9 11.9 13.8 1.1 5.5.5 10.8-1.8 14.3-1.3 1.9-2.9 3.1-4.9 3.5-.3.1-.8.1-1.2.1zM17.2 29.4h13.4l.3.6c2 4.7 5.4 7.8 8.5 7.8.3 0 .6 0 1-.1 1.4-.3 2.6-1.2 3.6-2.6 2-3 2.6-7.9 1.5-12.8-1.4-6.8-5.8-12.2-9.9-12.2-.3 0-.6 0-.9.1-1.3.3-2.3 1-3.2 2.2l-.3.4H16.8l-.3-.4c-.7-.9-1.7-1.9-3.2-2.2C8.9 9.3 4 14.9 2.5 22.3c-1 4.9-.5 9.8 1.5 12.8.9 1.4 2.1 2.3 3.5 2.6 3.3.7 7.3-2.6 9.5-7.7l.2-.6z"></path><path d="M11.2 28c-3 0-5.4-2.4-5.4-5.4 0-3 2.4-5.4 5.4-5.4 3 0 5.4 2.4 5.4 5.4 0 3-2.4 5.4-5.4 5.4zm0-8.8c-1.9 0-3.4 1.5-3.4 3.4S9.3 26 11.2 26s3.4-1.5 3.4-3.4-1.5-3.4-3.4-3.4zM33.3 16.2h2.8v2h-2.8zM33.3 24.7h2.8v2h-2.8z"></path><g><path d="M29.1 20.5H32v2h-2.9zM37.4 20.5h2.9v2h-2.9z"></path></g></g><defs data-v-fde0c5aa=""><!----></defs><g data-v-fde0c5aa="" id="7fc5c145-87a4-4798-9b6e-6bf65774cf74" fill="#ffffff" transform="matrix(0.5477604386496647,0,0,0.5477604386496647,122.64906632945493,160.35752287152)"><path d="M5.29 2.21L3.98 2.21L0.04 11.48L1.20 11.48L2.34 8.79L6.93 8.79L8.06 11.48L9.23 11.48ZM2.74 7.83L4.63 3.30L6.52 7.83ZM31.36 10.57C29.11 10.57 27.85 8.93 27.85 6.85C27.85 4.76 29.11 3.12 31.36 3.12C32.89 3.12 33.89 3.85 34.37 4.98L35.48 4.98C34.89 3.29 33.38 2.10 31.28 2.10C28.49 2.10 26.80 4.21 26.80 6.85C26.80 9.48 28.49 11.59 31.28 11.59C33.38 11.59 34.89 10.40 35.48 8.71L34.37 8.71C33.89 9.84 32.89 10.57 31.36 10.57ZM44.04 2.21L44.04 11.48L50.15 11.48L50.15 10.47L45.09 10.47L45.09 2.21ZM64.75 2.21L64.75 7.52C64.75 9.67 63.32 10.57 61.85 10.57C60.38 10.57 58.97 9.67 58.97 7.52L58.97 2.21L57.92 2.21L57.92 7.49C57.92 9.95 59.54 11.59 61.85 11.59C64.18 11.59 65.80 9.94 65.80 7.49L65.80 2.21ZM80.79 6.75C81.45 6.45 82.04 5.85 82.04 4.66C82.04 3.54 81.30 2.21 79.11 2.21L74.96 2.21L74.96 11.48L79.35 11.48C81.47 11.48 82.52 10.43 82.52 9.04C82.52 7.66 81.58 7 80.79 6.75ZM76.01 3.21L79.23 3.21C80.50 3.21 80.99 3.98 80.99 4.75C80.99 5.88 80.08 6.36 79.11 6.36L76.01 6.36ZM79.46 10.49L76.01 10.49L76.01 7.31L79.35 7.31C80.82 7.31 81.47 8.09 81.47 8.96C81.47 9.93 80.74 10.49 79.46 10.49ZM107.90 3.22L107.90 2.21L101.21 2.21L101.21 11.48L102.26 11.48L102.26 7.46L107.28 7.46L107.28 6.44L102.26 6.44L102.26 3.22ZM120.48 2.10C117.67 2.10 115.78 4.21 115.78 6.85C115.78 9.48 117.67 11.59 120.48 11.59C123.30 11.59 125.19 9.48 125.19 6.85C125.19 4.21 123.30 2.10 120.48 2.10ZM120.48 10.57C118.23 10.57 116.83 8.93 116.83 6.85C116.83 4.76 118.23 3.12 120.48 3.12C122.74 3.12 124.14 4.76 124.14 6.85C124.14 8.93 122.74 10.57 120.48 10.57ZM134.92 7.92L138.14 7.92L140.38 11.48L141.62 11.48L139.19 7.74C140.22 7.50 141.43 6.90 141.43 5.11C141.43 3.35 140.21 2.21 138.31 2.21L133.87 2.21L133.87 11.48L134.92 11.48ZM134.92 3.21L138.18 3.21C139.50 3.21 140.38 3.93 140.38 5.11C140.38 6.55 139.12 6.93 138.12 6.93L134.92 6.93ZM164.19 2.10C161.41 2.10 159.63 4.21 159.63 6.85C159.63 9.48 161.34 11.59 164.16 11.59C165.84 11.59 166.94 10.74 167.52 9.84L167.52 11.48L168.49 11.48L168.49 6.55L164.14 6.55L164.14 7.50L167.52 7.50C167.52 9.44 165.93 10.57 164.25 10.57C161.99 10.57 160.68 8.93 160.68 6.85C160.68 4.76 162.02 3.12 164.28 3.12C165.69 3.12 166.70 3.74 167.26 4.73L168.41 4.73C167.72 3.18 166.18 2.10 164.19 2.10ZM181.50 2.21L180.18 2.21L176.25 11.48L177.41 11.48L178.54 8.79L183.13 8.79L184.27 11.48L185.43 11.48ZM178.95 7.83L180.84 3.30L182.73 7.83ZM201.40 2.21L198.14 6.61L194.82 2.21L193.61 2.21L193.61 11.48L194.66 11.48L194.66 3.81L198.14 8.22L201.57 3.81L201.57 11.48L202.62 11.48L202.62 2.21ZM218.71 3.22L218.71 2.21L211.89 2.21L211.89 11.48L218.71 11.48L218.71 10.47L212.94 10.47L212.94 7.35L218.09 7.35L218.09 6.33L212.94 6.33L212.94 3.22ZM228.45 7.92L231.67 7.92L233.91 11.48L235.16 11.48L232.72 7.74C233.76 7.50 234.96 6.90 234.96 5.11C234.96 3.35 233.74 2.21 231.84 2.21L227.40 2.21L227.40 11.48L228.45 11.48ZM228.45 3.21L231.71 3.21C233.03 3.21 233.91 3.93 233.91 5.11C233.91 6.55 232.65 6.93 231.66 6.93L228.45 6.93ZM244.38 4.65C244.38 4.03 244.75 3.08 246.85 3.08C248.54 3.08 249.33 3.82 249.44 4.75L250.52 4.75C250.43 3.36 249.31 2.10 246.85 2.10C244.52 2.10 243.36 3.15 243.36 4.66C243.36 7.84 249.70 6.69 249.70 8.96C249.70 10.05 248.72 10.60 247.16 10.60C245.55 10.60 244.24 10.05 244.17 8.71L243.08 8.71C243.22 10.37 244.34 11.59 247.09 11.59C249.37 11.59 250.75 10.64 250.75 8.92C250.75 5.68 244.38 6.80 244.38 4.65Z"></path></g></svg>