<svg data-v-423bf9ae="" xmlns="http://www.w3.org/2000/svg" viewBox="0 0 358.0061897444927 60" class="font"><!----><!----><!----><g data-v-423bf9ae="" id="fb262f8e-c077-4a82-866e-ebb959e14a44" fill="black" transform="matrix(4.636785312648574,0,0,4.636785312648574,-3.7094248685999105,-3.106645819626735)"><path d="M5.03 6.51L6.64 6.51L6.64 9.49C6.27 9.56 5.33 9.69 4.63 9.69C2.39 9.69 1.92 8.37 1.92 5.68C1.92 2.94 2.41 1.64 4.65 1.64C5.92 1.64 7.66 1.93 7.66 1.93L7.70 1.04C7.70 1.04 5.99 0.67 4.52 0.67C1.61 0.67 0.80 2.46 0.80 5.68C0.80 8.82 1.58 10.64 4.55 10.64C5.61 10.64 7.41 10.36 7.70 10.30L7.70 5.54L5.03 5.54ZM14.57 5.61C14.57 4.09 13.90 3.36 12.32 3.36C11.12 3.36 9.58 3.67 9.58 3.67L9.62 4.47C9.62 4.47 11.28 4.28 12.26 4.28C13.10 4.28 13.52 4.63 13.52 5.61L13.52 6.22L11.33 6.43C9.88 6.57 9.18 7.15 9.18 8.50C9.18 9.91 9.88 10.64 11.16 10.64C12.42 10.64 13.68 10.08 13.68 10.08C14.10 10.50 14.60 10.64 15.34 10.64L15.39 9.81C14.94 9.76 14.60 9.60 14.57 9.20ZM13.52 7.01L13.52 9.32C13.52 9.32 12.36 9.76 11.33 9.76C10.61 9.76 10.26 9.28 10.26 8.47C10.26 7.70 10.60 7.29 11.45 7.21ZM17.70 10.50L17.70 4.82C17.70 4.82 18.58 4.30 19.57 4.30C20.85 4.30 21.04 4.96 21.04 6.89L21.04 10.50L22.09 10.50L22.09 6.86C22.09 6.02 22.04 5.14 21.91 4.82C21.91 4.82 22.85 4.30 23.88 4.30C25.14 4.30 25.35 4.98 25.35 6.83L25.35 10.50L26.40 10.50L26.40 6.80C26.40 4.27 25.94 3.36 24.04 3.36C22.79 3.36 21.55 4.07 21.55 4.07C21.18 3.57 20.66 3.36 19.73 3.36C18.73 3.36 17.68 3.99 17.68 3.99L17.68 3.50L16.65 3.50L16.65 10.50ZM30.94 9.72C29.57 9.72 29.11 8.93 29.11 7.43L33.73 7.43L33.78 6.64C33.78 4.34 32.83 3.36 30.97 3.36C29.19 3.36 28.04 4.38 28.04 7.04C28.04 9.42 28.73 10.64 30.81 10.64C31.95 10.64 33.54 10.42 33.54 10.42L33.52 9.59C33.52 9.59 31.99 9.72 30.94 9.72ZM29.09 6.59C29.11 4.90 29.78 4.24 30.97 4.24C32.20 4.24 32.73 4.86 32.73 6.59ZM35.42 10.50L36.47 10.50L36.47 5.36C36.47 5.36 37.70 4.68 39.02 4.41L39.02 3.35C37.67 3.61 36.46 4.45 36.46 4.45L36.46 3.50L35.42 3.50ZM47.07 7.24C49.18 7.24 50.16 6.05 50.16 3.93C50.16 1.83 49.18 0.81 47.07 0.81L43.53 0.81L43.53 10.50L44.60 10.50L44.60 7.24ZM44.60 6.29L44.60 1.76L47.05 1.76C48.47 1.76 49.06 2.45 49.06 3.93C49.06 5.43 48.47 6.29 47.05 6.29ZM54.18 9.72C52.81 9.72 52.35 8.93 52.35 7.43L56.97 7.43L57.02 6.64C57.02 4.34 56.07 3.36 54.21 3.36C52.43 3.36 51.28 4.38 51.28 7.04C51.28 9.42 51.97 10.64 54.05 10.64C55.19 10.64 56.78 10.42 56.78 10.42L56.76 9.59C56.76 9.59 55.23 9.72 54.18 9.72ZM52.33 6.59C52.35 4.90 53.02 4.24 54.21 4.24C55.44 4.24 55.97 4.86 55.97 6.59ZM61.25 9.72C59.88 9.72 59.42 8.93 59.42 7.43L64.04 7.43L64.09 6.64C64.09 4.34 63.14 3.36 61.28 3.36C59.50 3.36 58.35 4.38 58.35 7.04C58.35 9.42 59.04 10.64 61.12 10.64C62.26 10.64 63.85 10.42 63.85 10.42L63.83 9.59C63.83 9.59 62.30 9.72 61.25 9.72ZM59.40 6.59C59.42 4.90 60.09 4.24 61.28 4.24C62.51 4.24 63.04 4.86 63.04 6.59ZM65.73 13.61L66.78 13.61L66.78 10.49C66.98 10.53 67.69 10.64 68.35 10.64C70.50 10.64 71.40 9.66 71.40 6.92C71.40 4.44 70.63 3.36 68.87 3.36C67.83 3.36 66.77 4.00 66.77 4.00L66.77 3.50L65.73 3.50ZM68.71 4.30C69.73 4.30 70.34 5.00 70.34 6.92C70.34 8.93 69.83 9.73 68.29 9.73C67.69 9.73 66.96 9.60 66.78 9.58L66.78 4.86C66.78 4.86 67.76 4.30 68.71 4.30ZM77.78 3.63C77.78 3.63 76.30 3.36 75.25 3.36C73.98 3.36 72.73 3.86 72.73 5.40C72.73 6.80 73.49 7.10 75.07 7.35C76.59 7.59 76.96 7.77 76.96 8.50C76.96 9.45 76.34 9.70 75.19 9.70C74.48 9.70 72.88 9.46 72.88 9.46L72.83 10.37C72.83 10.37 74.40 10.64 75.29 10.64C76.97 10.64 78.01 10.09 78.01 8.46C78.01 7.10 77.35 6.75 75.60 6.45C74.12 6.20 73.78 6.02 73.78 5.36C73.78 4.54 74.44 4.30 75.31 4.30C76.20 4.30 77.76 4.52 77.76 4.52Z"></path></g><!----><!----></svg>